<?xml version="1.0" encoding="UTF-8"?>
<!-- Created with Inkscape (http://www.inkscape.org/) -->
<svg width="37.495mm" height="7.7478mm" version="1.1" viewBox="0 0 37.495 7.7478" xmlns="http://www.w3.org/2000/svg">
 <g transform="translate(-65.087 -133.88)">
  <g transform="translate(33.227 43.741)">
   <path d="m32.7 90.27c-0.39218 0-0.70797 0.31578-0.70797 0.70797v6.0673c0 0.39218 0.31578 0.70797 0.70797 0.70797h35.814c0.39218 0 0.70797-0.31578 0.70797-0.70797v-6.0673c0-0.39218-0.31578-0.70797-0.70797-0.70797zm0.67024 0.69298h34.552c0.36627 0 0.66146 0.29467 0.66146 0.66094v4.8519c0 0.36627-0.29519 0.66094-0.66146 0.66094h-34.552c-0.36627 0-0.66094-0.29467-0.66094-0.66094v-4.8519c0-0.36627 0.29467-0.66094 0.66094-0.66094z" stroke="#fff" stroke-width=".26458"/>
   <rect x="32.665" y="90.913" width="35.953" height="6.2438" ry=".52884" fill="#fff" stroke="#fff" stroke-width=".26458"/>
   <text transform="matrix(.24058 0 0 .24058 .33114 6.6185)" x="18.666616" fill="#000000" font-family="'Franklin Gothic Book'" font-size="26.667px" stroke="#000000" text-align="center" style="shape-inside:url(#rect2);white-space:pre" xml:space="preserve"><tspan x="173.8398" y="372.384">SPACE</tspan></text>
  </g>
 </g>
</svg>
