<?xml version="1.0" encoding="UTF-8"?>
<!-- Created with Inkscape (http://www.inkscape.org/) -->
<svg width="21.774mm" height="28.747mm" version="1.1" viewBox="0 0 21.774 28.747" xmlns="http://www.w3.org/2000/svg">
 <g transform="translate(-81.227 -83.344)">
  <g transform="translate(54.94 -20.941)">
   <g stroke="#000" stroke-width=".26458">
    <path d="m39.941 116.92c-1.5116 1e-3 -2.9917 0.43164-4.2685 1.2408-2.303 1.457-3.7042 3.9876-3.7171 6.7128-8.86e-4 0.0115-0.0017 0.0231-0.0026 0.0346-4e-6 4.4117 3.5764 7.9881 7.9881 7.9881 4.4117 0 7.9881-3.5764 7.9881-7.9881-3.19e-4 -0.0115-6.64e-4 -0.0231-1e-3 -0.0346-0.01253-2.7248-1.4132-5.2554-3.7155-6.7128-1.2777-0.80967-2.759-1.2399-4.2716-1.2408z"/>
    <path d="m47.923 118.23a7.9881 7.9881 0 0 1-7.9881 7.9881 7.9881 7.9881 0 0 1-7.9881-7.9881 7.9881 7.9881 0 0 1 7.9881-7.9881 7.9881 7.9881 0 0 1 7.9881 7.9881z"/>
    <path d="m47.923 118.23a7.9881 7.9881 0 0 1-7.9881 7.9881 7.9881 7.9881 0 0 1-7.9881-7.9881 7.9881 7.9881 0 0 1 7.9881-7.9881 7.9881 7.9881 0 0 1 7.9881 7.9881z"/>
    <path d="m31.952 118.34h15.975v6.4939h-15.975z"/>
   </g>
   <g fill="#fff">
    <g transform="matrix(.9229 0 0 .84628 3.0795 19.767)" stroke="#fff" stroke-width=".26458">
     <path d="m44.398 124.84h-8.9266a7.9881 7.9881 0 0 0 4.4633 1.3839 7.9881 7.9881 0 0 0 4.4633-1.3839z"/>
     <path d="m44.398 124.84a7.9881 7.9881 0 0 1-4.4633 1.3839 7.9881 7.9881 0 0 1-4.4633-1.3839h-3.515c-1.37e-4 0.0138-0.0015 0.0275-0.0016 0.0414-8.86e-4 0.0115-0.0017 0.0231-0.0026 0.0346-4e-6 4.4117 3.5764 7.9881 7.9881 7.9881 4.4117 0 7.9881-3.5764 7.9881-7.9881-3.19e-4 -0.0115-6.97e-4 -0.0231-1e-3 -0.0346-6.4e-5 -0.0139-0.0014-0.0275-0.0016-0.0414z"/>
    </g>
    <g stroke="#000">
     <path d="m32.343 117.77h7.0626v-7.2029s-6.2207 0.74836-7.0626 7.2029z" stroke-width=".26458"/>
     <path d="m47.563 117.76h-6.9432v-7.2167s6.1155 0.74979 6.9432 7.2167z" stroke-width=".26259"/>
     <path d="m47.563 117.76h-6.9432v-7.1934s6.1155 0.7264 6.9432 7.1934z" stroke-width=".26259"/>
    </g>
   </g>
   <path d="m33.062 117.25h5.8617v-5.946s-5.1629 0.61776-5.8617 5.946z" stroke="#000" stroke-width=".219"/>
   <path d="m32.577 118.9h14.727v6.3465h-14.727z" fill="#fff" stroke="#fff" stroke-width=".24989"/>
   <g transform="matrix(.9229 0 0 .84628 3.0795 19.767)" fill="#fff" stroke="#fff">
    <path d="m44.398 124.84h-8.9266a7.9881 7.9881 0 0 0 4.4633 1.3839 7.9881 7.9881 0 0 0 4.4633-1.3839z" fill="#fff" stroke="#fff" stroke-width=".26458"/>
   </g>
   <g fill="#fff" stroke="#fff">
    <path transform="matrix(.9229 0 0 .84628 3.0795 19.767)" d="m31.957 124.84c-1.37e-4 0.0138-0.0015 0.0275-0.0016 0.0414-8.86e-4 0.0115-0.0017 0.0231-0.0026 0.0346-4e-6 4.4117 3.5764 7.9881 7.9881 7.9881 4.4117 0 7.9881-3.5764 7.9881-7.9881-3.19e-4 -0.0115-6.97e-4 -0.0231-1e-3 -0.0346-6.4e-5 -0.0139-0.0014-0.0275-0.0016-0.0414z" stroke-width=".26458"/>
    <path d="m32.577 118.9h14.727v6.3465h-14.727z" stroke-width=".24989"/>
   </g>
   <g stroke="#fff" stroke-width=".20418">
    <path transform="rotate(-55.571)" d="m-74.653 85.392c0.46992 0 0.84823 0.37831 0.84823 0.84823v3.4651c0 0.46992-0.37831 0.84823-0.84823 0.84823-0.46992 0-0.84823-0.37831-0.84823-0.84823v-3.4651c0-0.46992 0.37831-0.84823 0.84823-0.84823z"/>
    <path transform="rotate(-32.022)" d="m-29.149 107.02c0.46992 0 0.84823 0.37831 0.84823 0.84823v3.4651c0 0.46991-0.37831 0.84822-0.84823 0.84822-0.46992 0-0.84823-0.37831-0.84823-0.84822v-3.4651c0-0.46992 0.37831-0.84823 0.84823-0.84823z"/>
    <path transform="rotate(-80.868)" d="m-109.44 44.331c0.46992 0 0.84823 0.37831 0.84823 0.84823v3.4651c0 0.46992-0.37831 0.84823-0.84823 0.84823-0.46991 0-0.84822-0.37831-0.84822-0.84823v-3.4651c0-0.46992 0.37831-0.84823 0.84822-0.84823z"/>
    <path transform="rotate(-8.1434)" d="m21.748 108.57c0.46992 0 0.84823 0.37831 0.84823 0.84822v3.4651c0 0.46992-0.37831 0.84823-0.84823 0.84823-0.46992 0-0.84823-0.37831-0.84823-0.84823v-3.4651c0-0.46991 0.37831-0.84822 0.84823-0.84822z"/>
   </g>
  </g>
 </g>
</svg>
