<?xml version="1.0" encoding="UTF-8"?>
<!-- Created with Inkscape (http://www.inkscape.org/) -->
<svg width="27.609mm" height="28.23mm" version="1.1" viewBox="0 0 27.609 28.23" xmlns="http://www.w3.org/2000/svg">
 <g transform="translate(-94.721 -119.59)">
  <g transform="translate(8.441 15.505)">
   <g transform="translate(60.219 -.71455)" stroke="#000" stroke-width=".26458">
    <path d="m39.941 116.92c-1.5116 1e-3 -2.9917 0.43164-4.2685 1.2408-2.303 1.457-3.7042 3.9876-3.7171 6.7128-8.86e-4 0.0115-0.0017 0.0231-0.0026 0.0346-4e-6 4.4117 3.5764 7.9881 7.9881 7.9881 4.4117 0 7.9881-3.5764 7.9881-7.9881-3.19e-4 -0.0115-6.64e-4 -0.0231-1e-3 -0.0346-0.01253-2.7248-1.4132-5.2554-3.7155-6.7128-1.2777-0.80967-2.759-1.2399-4.2716-1.2408z"/>
    <circle cx="39.935" cy="118.23" r="7.9881"/>
    <circle cx="39.935" cy="118.23" r="7.9881"/>
    <rect x="31.952" y="118.34" width="15.975" height="6.4939" ry="0"/>
   </g>
   <g fill="#fff" stroke="#000">
    <path d="m92.562 117.06h7.0626v-7.2029s-6.2207 0.74836-7.0626 7.2029z" stroke-width=".26458"/>
    <path d="m107.78 117.04h-6.9432v-7.2167s6.1155 0.74979 6.9432 7.2167z" stroke-width=".26259"/>
    <path d="m107.78 117.04h-6.9432v-7.1934s6.1155 0.7264 6.9432 7.1934z" stroke-width=".26259"/>
   </g>
   <path d="m107.16 116.56h-5.8411v-5.9464s5.1448 0.6178 5.8411 5.9464z" stroke="#000" stroke-width=".21862"/>
   <path d="m93.299 116.57h5.8292v-5.9466s-5.1344 0.61783-5.8292 5.9466z" stroke="#000" stroke-width=".21841"/>
   <g transform="translate(60.197 -.75959)" fill="#fff" stroke="#fff">
    <path transform="matrix(.9229 0 0 .84628 3.0795 19.767)" d="m31.957 124.84c-1.37e-4 0.0138-0.0015 0.0275-0.0016 0.0414-8.86e-4 0.0115-0.0017 0.0231-0.0026 0.0346-4e-6 4.4117 3.5764 7.9881 7.9881 7.9881 4.4117 0 7.9881-3.5764 7.9881-7.9881-3.19e-4 -0.0115-6.97e-4 -0.0231-1e-3 -0.0346-6.4e-5 -0.0139-0.0014-0.0275-0.0016-0.0414z" stroke-width=".26458"/>
    <rect x="32.577" y="118.9" width="14.727" height="6.3465" stroke-width=".24989"/>
   </g>
   <g stroke="#fff">
    <g stroke-width=".20418">
     <rect transform="rotate(-55.571)" x="-41.419" y="134.76" width="1.6965" height="5.1615" ry=".84823"/>
     <rect transform="rotate(-32.022)" x="20.973" y="138.66" width="1.6965" height="5.1615" ry=".84823"/>
     <rect transform="rotate(-80.868)" x="-100.57" y="103.53" width="1.6965" height="5.1615" ry=".84823"/>
     <rect transform="rotate(-8.1434)" x="80.316" y="116.87" width="1.6965" height="5.1615" ry=".84823"/>
    </g>
    <rect transform="matrix(-.55484 -.83196 -.81749 .57594 0 0)" x="-155.04" y="-32.343" width="1.6823" height="5.0681" ry=".83287" stroke-width=".20148"/>
    <rect transform="matrix(-.8412 -.54072 -.51981 .85428 0 0)" x="-148.49" y="30.616" width="1.664" height="5.1238" ry=".84202" stroke-width=".20148"/>
    <rect transform="matrix(-.15452 -.98799 -.98662 .16301 0 0)" x="-132.76" y="-94.658" width="1.6957" height="5.0266" ry=".82604" stroke-width=".20145"/>
    <rect transform="matrix(-.98936 -.14551 -.13789 .99045 0 0)" x="-117.76" y="88.028" width="1.6519" height="5.1599" ry=".84796" stroke-width=".20145"/>
   </g>
  </g>
 </g>
</svg>
