<?xml version="1.0" encoding="UTF-8"?>
<!-- Created with Inkscape (http://www.inkscape.org/) -->
<svg width="7.3272mm" height="7.3272mm" version="1.1" viewBox="0 0 7.3272 7.3272" xmlns="http://www.w3.org/2000/svg">
 <g transform="translate(-93.927 -140.76)">
  <g transform="translate(23.995 50.387)">
   <path d="m70.726 90.504c-0.36627 0-0.66146 0.29519-0.66146 0.66146v5.7402c0 0.36627 0.29519 0.66094 0.66146 0.66094h5.7402c0.36627 0 0.66094-0.29467 0.66094-0.66094v-5.7402c0-0.36627-0.29467-0.66146-0.66094-0.66146zm0.08268 0.21497h5.6084c0.30214 0 0.54519 0.24305 0.54519 0.54519v5.5919c0 0.30214-0.24305 0.54519-0.54519 0.54519h-5.6084c-0.30214 0-0.54519-0.24305-0.54519-0.54519v-5.5919c0-0.30214 0.24305-0.54519 0.54519-0.54519z" stroke="#000" stroke-width=".26458"/>
   <rect x="70.529" y="90.925" width="6.2705" height="6.3016" ry=".26357" fill="#fff" stroke="#fff" stroke-width=".26458"/>
   <text transform="matrix(.22983 0 0 .22983 9.2897 12.003)" fill="#000000" font-family="'Franklin Gothic Heavy'" font-size="26.667px" stroke="#ffffff" text-align="center" style="shape-inside:url(#rect5);white-space:pre" xml:space="preserve"><tspan x="268.05988" y="366.01876">W</tspan></text>
  </g>
 </g>
</svg>
